<svg aria-hidden="true" style="position: absolute; width: 0; height: 0; overflow: hidden;" version="1.1" xmlns="http://www.w3.org/2000/svg" xmlns:xlink="http://www.w3.org/1999/xlink">
<defs>
<symbol id="icon-close" viewBox="0 0 32 32">
<path d="M26.667 7.303l-1.97-1.97-7.808 7.808-7.808-7.808-1.97 1.97 7.808 7.808-7.808 7.808 1.97 1.97 7.808-7.808 7.808 7.808 1.97-1.97-7.808-7.808 7.808-7.808z"></path>
</symbol>
<symbol id="icon-burger-open" viewBox="0 0 40 40">
    <path fill="#fff" style="fill: var(--primary-color, #fff)" d="M8 14.6667V12H32V14.6667H8ZM8 21.3333H32V18.6667H8V21.3333ZM8 28H32V25.3333H8V28Z" />
</symbol>
<symbol id="icon-burger-close" viewBox="0 0 40 40">
    <path fill="#434343" style="fill: var(--primary-color, #fff)"  d="M29.6667 12.88L27.7867 11L20.3333 18.4533L12.88 11L11 12.88L18.4533 20.3333L11 27.7867L12.88 29.6667L20.3333 22.2133L27.7867 29.6667L29.6667 27.7867L22.2133 20.3333L29.6667 12.88Z" />
</symbol>
<symbol id="icon-mail" viewBox="0 0 32 32">
<path d="M5.333 26.667q-1.1 0-1.883-0.783t-0.783-1.883v-16q0-1.1 0.783-1.883t1.883-0.783h21.333q1.1 0 1.883 0.783t0.783 1.883v16q0 1.1-0.783 1.883t-1.883 0.783h-21.333zM16 17.333l-10.667-6.667v13.333h21.333v-13.333l-10.667 6.667zM16 14.667l10.667-6.667h-21.333l10.667 6.667zM5.333 10.667v-0z"></path>
</symbol>
<symbol id="icon-person" viewBox="0 0 32 32">
<path d="M16 16q-2.2 0-3.767-1.567t-1.567-3.767 1.567-3.767 3.767-1.567 3.767 1.567 1.567 3.767-1.567 3.767-3.767 1.567zM5.333 26.667v-3.733q0-1.133 0.583-2.083t1.55-1.45q2.067-1.033 4.2-1.55t4.333-0.517 4.333 0.517 4.2 1.55q0.967 0.5 1.55 1.45t0.583 2.083v3.733h-21.333zM8 24h16v-1.067q0-0.367-0.183-0.667t-0.483-0.467q-1.8-0.9-3.633-1.35t-3.7-0.45-3.7 0.45-3.633 1.35q-0.3 0.167-0.483 0.467t-0.183 0.667v1.067zM16 13.333q1.1 0 1.883-0.783t0.783-1.883-0.783-1.883-1.883-0.783-1.883 0.783-0.783 1.883 0.783 1.883 1.883 0.783z"></path>
</symbol>
<symbol id="icon-zig-zag-main" viewBox="0 0 242 32">
<path fill="none" stroke="#fff" style="stroke: var(--primary-color, #fff)" stroke-linejoin="miter" stroke-linecap="round" stroke-miterlimit="10" stroke-width="3.5556" d="M2.556 2.667l23.713 26.177 23.713-26.177 23.686 26.177 23.714-26.177 23.685 26.177 23.713-26.177 23.714 26.177 23.713-26.177 23.713 26.177 23.74-26.177"></path>
</symbol>
<symbol id="icon-frame-35" viewBox="0 4 32 32">
<path fill="none" stroke="#fff" style="stroke: var(--color1, #fff)" stroke-linejoin="miter" stroke-linecap="butt" stroke-miterlimit="4" stroke-width="0.4267" d="M0.45 2.667c-0.979 2.911-1.001 9.28 6.743 11.464 5.503 1.552 8.146 4.114 9.241 6.12 0.693 1.27 0.886 2.796 1.746 3.959 2.271 3.071 7.040 5.753 14.246 0.183"></path>
<path fill="none" stroke="#fff" style="stroke: var(--color1, #fff)" stroke-linejoin="miter" stroke-linecap="butt" stroke-miterlimit="4" stroke-width="0.4267" d="M4.077-0.107c-0.979 2.638-1.001 8.408 6.743 10.386 5.181 1.324 7.827 3.459 9.033 5.221 0.891 1.303 1.138 2.999 2.184 4.181 2.354 2.662 7.044 4.778 14.016-0.104"></path>
<path fill="none" stroke="#fff" style="stroke: var(--color1, #fff)" stroke-linejoin="miter" stroke-linecap="butt" stroke-miterlimit="4" stroke-width="0.4267" d="M7.063-4.16c-0.979 2.538-1.001 8.090 6.743 9.994 5.050 1.241 7.692 3.225 8.939 4.895 0.976 1.307 1.253 3.075 2.377 4.258 2.385 2.511 7.042 4.427 13.918-0.206"></path>
<path fill="none" stroke="#fff" style="stroke: var(--color1, #fff)" stroke-linejoin="miter" stroke-linecap="butt" stroke-miterlimit="4" stroke-width="0.4267" d="M12.397-6.507c-0.979 2.538-1.001 8.090 6.743 9.994 5.050 1.241 7.692 3.225 8.939 4.895 0.976 1.307 1.253 3.075 2.377 4.258 2.385 2.511 7.042 4.427 13.918-0.206"></path>
</symbol>
<symbol id="icon-frame-36" viewBox="0 0 32 32">
<path fill="none" stroke="#fff" style="stroke: var(--color1, #fff)" stroke-linejoin="miter" stroke-linecap="butt" stroke-miterlimit="4" stroke-width="0.4267" d="M31.55 29.333c0.979-2.911 1.001-9.28-6.743-11.464-5.503-1.552-8.146-4.114-9.242-6.12-0.693-1.27-0.886-2.796-1.746-3.96-2.271-3.071-7.040-5.753-14.246-0.183"></path>
<path fill="none" stroke="#fff" style="stroke: var(--color1, #fff)" stroke-linejoin="miter" stroke-linecap="butt" stroke-miterlimit="4" stroke-width="0.4267" d="M27.923 32.107c0.979-2.638 1.001-8.408-6.743-10.386-5.181-1.324-7.827-3.459-9.033-5.221-0.891-1.303-1.138-2.999-2.184-4.181-2.354-2.662-7.045-4.778-14.016 0.104"></path>
<path fill="none" stroke="#fff" style="stroke: var(--color1, #fff)" stroke-linejoin="miter" stroke-linecap="butt" stroke-miterlimit="4" stroke-width="0.4267" d="M24.937 36.16c0.979-2.538 1.001-8.090-6.743-9.994-5.050-1.241-7.692-3.225-8.939-4.895-0.976-1.307-1.253-3.075-2.377-4.258-2.385-2.511-7.042-4.427-13.918 0.206"></path>
<path fill="none" stroke="#fff" style="stroke: var(--color1, #fff)" stroke-linejoin="miter" stroke-linecap="butt" stroke-miterlimit="4" stroke-width="0.4267" d="M19.603 38.507c0.979-2.538 1.001-8.090-6.743-9.994-5.050-1.241-7.692-3.225-8.939-4.895-0.976-1.307-1.253-3.075-2.377-4.258-2.385-2.511-7.042-4.427-13.918 0.206"></path>
</symbol>
<symbol id="icon-graph" viewBox="0 0 32 32">
<path fill="#0b0b0b" style="fill: var(--color2, #0b0b0b)" d="M32 16c0 8.837-7.163 16-16 16s-16-7.163-16-16c0-8.837 7.163-16 16-16s16 7.163 16 16zM4.8 16c0 6.186 5.014 11.2 11.2 11.2s11.2-5.014 11.2-11.2c0-6.186-5.014-11.2-11.2-11.2s-11.2 5.014-11.2 11.2z"></path>
<path fill="#000" style="fill: var(--color3, #000)" d="M6.383 25.617c-0.937 0.937-2.474 0.946-3.261-0.121-1.94-2.631-3.040-5.812-3.118-9.119-0.097-4.112 1.393-8.103 4.161-11.145s6.601-4.901 10.704-5.192c4.103-0.29 8.16 1.010 11.329 3.632s5.207 6.363 5.69 10.448c0.483 4.085-0.625 8.198-3.094 11.487s-6.111 5.501-10.168 6.176c-3.263 0.543-6.593 0.059-9.542-1.354-1.195-0.573-1.475-2.084-0.73-3.18s2.233-1.353 3.463-0.858c1.894 0.762 3.976 0.998 6.020 0.658 2.84-0.473 5.389-2.021 7.118-4.323s2.504-5.182 2.166-8.041c-0.338-2.859-1.765-5.478-3.983-7.313s-5.058-2.746-7.93-2.542c-2.872 0.203-5.555 1.505-7.493 3.634s-2.981 4.923-2.913 7.802c0.049 2.072 0.671 4.073 1.774 5.791 0.716 1.115 0.743 2.625-0.194 3.562z"></path>
</symbol>
<symbol id="icon-phone-mod" viewBox="0 0 18 18">
    <path d="M13.996 11.1226L12.1579 10.9127C11.7164 10.8621 11.2822 11.0141 10.971 11.3252L9.63945 12.6568C7.59144 11.6147 5.91251 9.94301 4.87041 7.88775L6.20922 6.54894C6.5204 6.23775 6.67237 5.80355 6.62171 5.3621L6.41185 3.53842C6.325 2.8075 5.70988 2.2575 4.97173 2.2575H3.71976C2.902 2.2575 2.22175 2.93776 2.2724 3.75552C2.65595 9.93577 7.59868 14.8713 13.7717 15.2548C14.5894 15.3055 15.2697 14.6252 15.2697 13.8075V12.5555C15.2769 11.8246 14.7269 11.2095 13.996 11.1226Z" />
</symbol>
<symbol id="icon-warm" viewBox="0 0 32 32">
<path fill="#fff" style="fill: var(--color1, #fff)" d="M0.711 11.725c0-0.319-0.259-0.579-0.579-0.579v-4.114c2.593 0 4.696 2.101 4.696 4.692v8.549c0 0.319 0.259 0.579 0.579 0.579s0.579-0.259 0.579-0.579v-8.549c0-2.592 2.102-4.692 4.696-4.692s4.696 2.101 4.696 4.692v8.549c0 0.319 0.259 0.579 0.579 0.579s0.579-0.259 0.579-0.579v-8.549c0-2.592 2.102-4.692 4.696-4.692s4.696 2.101 4.696 4.692v8.549c0 0.319 0.259 0.579 0.579 0.579s0.579-0.259 0.579-0.579v-8.549c0-2.592 2.102-4.692 4.696-4.692v4.114c-0.32 0-0.579 0.259-0.579 0.579v8.549c0 2.592-2.102 4.692-4.696 4.692s-4.696-2.101-4.696-4.692v-8.549c0-0.319-0.259-0.579-0.579-0.579s-0.579 0.259-0.579 0.579v8.549c0 2.592-2.102 4.692-4.696 4.692s-4.696-2.101-4.696-4.692v-8.549c0-0.319-0.259-0.579-0.579-0.579s-0.579 0.259-0.579 0.579v8.549c0 2.592-2.102 4.692-4.696 4.692s-4.696-2.101-4.696-4.692v-8.549z"></path>
</symbol>
<symbol id="icon-Zig-Zag" viewBox="0 0 32 32">
<path fill="none" stroke="#fff" style="stroke: var(--color1, #fff)" stroke-linejoin="miter" stroke-linecap="round" stroke-miterlimit="10" stroke-width="1.2427" d="M0.621 13.049l3.076 5.903 3.076-5.903 3.073 5.903 3.076-5.903 3.072 5.903 3.076-5.903 3.076 5.903 3.076-5.903 3.076 5.903 3.080-5.903"></path>
</symbol>
<symbol id="icon-zig-zag" viewBox="0 0 114 32">
<path fill="none" stroke="#fff" style="stroke: var(--color1, #fff)" stroke-linejoin="miter" stroke-linecap="round" stroke-miterlimit="10" stroke-width="4.4138" d="M2.207 5.517l10.925 20.966 10.925-20.966 10.913 20.966 10.926-20.966 10.913 20.966 10.925-20.966 10.926 20.966 10.925-20.966 10.925 20.966 10.938-20.966"></path>
</symbol>
<symbol id="icon-portal" viewBox="0 0 32 32">
<path fill="#fff" style="fill: var(--primary-color, #fff)" d="M15.901 31.901c-0.032-8.771-7.138-15.871-15.901-15.871 8.782 0 15.901-7.132 15.901-15.93 0.032 8.771 7.139 15.871 15.901 15.871-8.782 0-15.901 7.132-15.901 15.93z"></path>
</symbol>
<symbol id="icon-moon" viewBox="0 0 32 32">
<path d="M28.707 21.24c-0.213-0.36-0.813-0.92-2.307-0.653-0.827 0.147-1.667 0.213-2.507 0.173-3.107-0.133-5.92-1.56-7.88-3.76-1.733-1.933-2.8-4.453-2.813-7.173 0-1.52 0.293-2.987 0.893-4.373 0.587-1.347 0.173-2.053-0.12-2.347-0.307-0.307-1.027-0.733-2.44-0.147-5.453 2.293-8.827 7.76-8.427 13.613 0.4 5.507 4.267 10.213 9.387 11.987 1.227 0.427 2.52 0.68 3.853 0.733 0.213 0.013 0.427 0.027 0.64 0.027 4.467 0 8.653-2.107 11.293-5.693 0.893-1.24 0.653-2.027 0.427-2.387z"></path>
</symbol>
<symbol id="icon-arrow-down" viewBox="0 0 32 32">
<path fill="none" stroke="#fff" style="stroke: var(--contact-btn-color, #fff)" stroke-linejoin="round" stroke-linecap="round" stroke-miterlimit="4" stroke-width="2.2857" d="M16 28.699c7.013 0 12.698-5.685 12.698-12.698s-5.685-12.698-12.698-12.698c-7.013 0-12.698 5.685-12.698 12.698s5.685 12.698 12.698 12.698z"></path>
<path fill="none" stroke="#fff" style="stroke: var(--contact-btn-color, #fff)" stroke-linejoin="round" stroke-linecap="round" stroke-miterlimit="4" stroke-width="2.2857" d="M16 11.555v7.619"></path>
<path fill="none" stroke="#fff" style="stroke: var(--contact-btn-color, #fff)" stroke-linejoin="round" stroke-linecap="round" stroke-miterlimit="4" stroke-width="2.2857" d="M12.19 16.635l3.81 3.81 3.81-3.81"></path>
</symbol>
<symbol id="icon-dawn" viewBox="0 0 32 32">
<path fill="#c8fec7" style="fill: var(--stats-color, #c8fec7); stroke: var(--stats-color, #c8fec7)" stroke="#c8fec7" stroke-linejoin="miter" stroke-linecap="butt" stroke-miterlimit="4" stroke-width="1.6" d="M16 0l0.003 15.984 6.12-14.766-6.114 14.769 11.305-11.3-11.3 11.305 14.769-6.114-14.766 6.12 15.984 0.003-15.984 0.003 14.766 6.12-14.769-6.114 11.3 11.305-11.305-11.3 6.114 14.769-6.12-14.766-0.003 15.984-0.003-15.984-6.12 14.766 6.114-14.769-11.305 11.3 11.3-11.305-14.769 6.114 14.766-6.12-15.984-0.003 15.984-0.003-14.766-6.12 14.769 6.114-11.3-11.305 11.305 11.3-6.114-14.769 6.12 14.766 0.003-15.984z"></path>
</symbol>
<symbol id="icon-figma" viewBox="0 0 32 32">
<path fill="#fff" style="fill: var(--primary-color, #fff)" d="M10.875 31.61c2.872 0 5.203-2.331 5.203-5.203v-5.203h-5.203c-2.872 0-5.203 2.331-5.203 5.203s2.331 5.203 5.203 5.203z"></path>
<path fill="#fff" style="fill: var(--primary-color, #fff)" d="M5.671 16c0-2.872 2.331-5.203 5.203-5.203h5.203v10.406h-5.203c-2.872 0-5.203-2.331-5.203-5.203z"></path>
<path fill="#fff" style="fill: var(--primary-color, #fff)" d="M5.671 5.593c0-2.872 2.331-5.203 5.203-5.203h5.203v10.406h-5.203c-2.872 0-5.203-2.331-5.203-5.203z"></path>
<path fill="#fff" style="fill: var(--primary-color, #fff)" d="M16.078 0.39h5.203c2.872 0 5.203 2.331 5.203 5.203s-2.331 5.203-5.203 5.203h-5.203v-10.406z"></path>
<path fill="#fff" style="fill: var(--primary-color, #fff)" d="M26.484 16c0 2.872-2.331 5.203-5.203 5.203s-5.203-2.331-5.203-5.203c0-2.872 2.331-5.203 5.203-5.203s5.203 2.331 5.203 5.203z"></path>
</symbol>
<symbol id="icon-instagram" viewBox="0 0 31 32">
<path fill="#fff" style="fill: var(--primary-color, #fff)" d="M23.525 6.306c-2.373 0.073-2.372 3.486 0 3.558 2.373-0.073 2.372-3.486 0-3.558zM15.61 8.366c-4.205 0-7.614 3.418-7.614 7.634 0.401 10.127 14.828 10.124 15.228 0 0-4.216-3.409-7.634-7.614-7.634zM15.61 20.956c-2.73 0-4.942-2.219-4.942-4.955 0.26-6.573 9.626-6.572 9.885 0-0 2.737-2.213 4.955-4.943 4.955z"></path>
<path fill="#fff" style="fill: var(--primary-color, #fff)" d="M30.348 9.887c-0.11-5.203-3.42-8.516-8.625-8.625-1.25-0.121-10.976-0.123-12.226 0-5.203 0.11-8.516 3.42-8.625 8.625-0.121 1.248-0.123 10.977 0 12.227 0.097 5.186 3.438 8.528 8.625 8.625 1.25 0.122 10.976 0.122 12.226 0 1.578-0.072 2.656-0.323 3.599-0.689 3.305-1.32 4.92-4.257 5.026-7.936 0.12-1.25 0.123-10.976 0-12.226zM21.601 28.069c-1.23 0.117-10.752 0.119-11.983 0-1.445-0.066-2.231-0.308-2.753-0.51-4.511-2.092-3.112-6.323-3.325-12.131 0.005-1.349-0.003-4.070 0-5.419 0.18-4.022 2.074-5.884 6.078-6.078 1.231-0.117 10.751-0.119 11.983 0 4.023 0.18 5.883 2.074 6.078 6.078 0.080 0.961 0.137 6.209 0 8.864 0.148 4.988-0.079 8.904-6.078 9.197z"></path>
</symbol>
<symbol id="icon-linkedin" viewBox="0 0 32 32">
<path fill="#fff" style="fill: var(--primary-color, #fff)" d="M28.403 1.175c-4.562-0.013-21.386 0.009-25.275 0-1.21 0-2.192 0.952-2.192 2.124v25.407c0 1.173 0.982 2.123 2.192 2.123h25.275c1.211 0 2.192-0.951 2.192-2.124v-25.406c0-1.172-0.981-2.124-2.192-2.124z"></path>
<path fill="#000" style="fill: var(--background-primary-color, #000)" d="M16.844 25.992c0 0 0-7.455 0-7.455-0.043-1.37 0.776-2.648 2.423-2.706 1.606 0 2.248 1.224 2.248 3.019v7.141h4.438v-7.655c0-4.101-2.189-6.009-5.109-6.009-2.394 0-3.445 1.338-4.029 2.249l0.030-1.936h-4.438c0.058 1.253-0 13.35-0 13.35h4.438zM9.95 20.202v-7.561h-4.438v13.35h4.438c-0.001-1.402 0.002-4.407-0-5.789zM7.731 10.819c1.547 0 2.511-1.025 2.511-2.306-0.013-3.090-4.996-3.055-4.992-0-0.003 1.291 0.987 2.322 2.482 2.306z"></path>
</symbol>
<symbol id="icon-logo" viewBox="0 0 31 32">
<path fill="#fff" style="fill: var(--primary-color, #fff)" d="M23.256 14.137c-0.433 0.436-0.765 0.962-0.971 1.54s-0.283 1.196-0.224 1.807l-0.021-0.021c0.061 0.72-0.036 1.444-0.284 2.123s-0.641 1.294-1.152 1.805c-0.511 0.511-1.127 0.904-1.805 1.152s-1.403 0.345-2.123 0.284l0.021 0.021c-0.861-0.080-1.726 0.107-2.477 0.537s-1.351 1.080-1.718 1.863-0.485 1.66-0.335 2.512c0.149 0.852 0.558 1.637 1.169 2.248s1.397 1.019 2.249 1.167c0.852 0.149 1.729 0.031 2.511-0.337s1.432-0.969 1.861-1.72 0.615-1.616 0.534-2.477l0.022 0.021c-0.061-0.72 0.036-1.444 0.284-2.123s0.641-1.294 1.152-1.805c0.511-0.511 1.127-0.904 1.805-1.152s1.403-0.345 2.123-0.284l-0.022-0.021c0.703 0.063 1.411-0.052 2.058-0.335s1.212-0.725 1.642-1.285 0.713-1.219 0.821-1.917c0.108-0.698 0.038-1.412-0.203-2.076s-0.646-1.256-1.177-1.721-1.171-0.789-1.861-0.942c-0.69-0.152-1.407-0.128-2.084 0.070s-1.294 0.565-1.793 1.065h-0.003z"></path>
<path fill="#fff" style="fill: var(--primary-color, #fff)" d="M14.825 20.155l-0.022-0.021c0.612 0.062 1.23-0.014 1.809-0.22s1.105-0.539 1.54-0.974c0.435-0.435 0.768-0.961 0.975-1.54s0.282-1.197 0.221-1.809l0.022 0.021c-0.061-0.72 0.036-1.444 0.284-2.123s0.641-1.294 1.152-1.805c0.511-0.511 1.127-0.904 1.805-1.152s1.403-0.345 2.123-0.284l-0.022-0.021c0.861 0.081 1.726-0.106 2.477-0.535s1.352-1.079 1.72-1.862 0.486-1.66 0.337-2.512c-0.149-0.852-0.557-1.637-1.168-2.249s-1.397-1.020-2.249-1.168-1.729-0.031-2.512 0.337c-0.783 0.368-1.433 0.969-1.862 1.72s-0.616 1.616-0.535 2.477l-0.021-0.022c0.061 0.72-0.036 1.444-0.284 2.123s-0.641 1.295-1.152 1.806c-0.511 0.511-1.127 0.904-1.806 1.152s-1.403 0.345-2.123 0.284l0.021 0.022c-0.612-0.062-1.23 0.014-1.809 0.22s-1.105 0.539-1.54 0.973-0.768 0.961-0.975 1.54c-0.207 0.579-0.282 1.197-0.221 1.809l-0.021-0.021c0.061 0.72-0.037 1.444-0.285 2.122s-0.641 1.294-1.152 1.805c-0.511 0.511-1.127 0.904-1.805 1.152s-1.403 0.345-2.122 0.285l0.021 0.021c-0.861-0.081-1.726 0.106-2.477 0.535s-1.352 1.079-1.72 1.862c-0.368 0.783-0.486 1.66-0.337 2.512s0.557 1.637 1.168 2.249c0.612 0.612 1.397 1.020 2.249 1.168s1.729 0.031 2.512-0.337c0.783-0.368 1.433-0.968 1.862-1.72s0.616-1.616 0.535-2.477l0.022 0.021c-0.061-0.72 0.036-1.444 0.284-2.123s0.641-1.294 1.152-1.805c0.511-0.511 1.127-0.904 1.805-1.152s1.403-0.345 2.123-0.284z"></path>
<path fill="#fff" style="fill: var(--primary-color, #fff)" d="M7.166 17.861c0.433-0.436 0.765-0.962 0.971-1.54s0.283-1.196 0.223-1.807l0.022 0.021c-0.061-0.72 0.036-1.445 0.285-2.123s0.642-1.295 1.153-1.806c0.511-0.511 1.127-0.904 1.806-1.152s1.403-0.345 2.123-0.284l-0.022-0.021c0.861 0.081 1.726-0.106 2.476-0.535s1.351-1.079 1.719-1.861c0.368-0.782 0.485-1.659 0.336-2.511s-0.557-1.637-1.168-2.248c-0.611-0.611-1.396-1.019-2.248-1.168s-1.729-0.031-2.511 0.336c-0.783 0.368-1.432 0.968-1.861 1.719s-0.616 1.615-0.535 2.476l-0.021-0.021c0.061 0.72-0.036 1.444-0.284 2.123s-0.641 1.295-1.152 1.805c-0.511 0.511-1.127 0.904-1.805 1.152s-1.403 0.345-2.123 0.284l0.021 0.021c-0.703-0.063-1.411 0.052-2.058 0.336s-1.212 0.725-1.642 1.285c-0.431 0.56-0.713 1.219-0.821 1.917s-0.038 1.412 0.204 2.075c0.241 0.664 0.646 1.256 1.178 1.721s1.171 0.789 1.861 0.942c0.69 0.152 1.406 0.128 2.084-0.071s1.294-0.565 1.793-1.065h-0.002z"></path>
</symbol>
<symbol id="icon-logo-bigger" viewBox="0 0 32 32">
<path fill="#fff" style="fill: var(--color1, #fff)" d="M24.419 14.044c-0.455 0.458-0.803 1.010-1.020 1.617s-0.297 1.255-0.235 1.898l-0.022-0.022c0.064 0.756-0.038 1.516-0.299 2.229s-0.673 1.359-1.21 1.896c-0.536 0.536-1.183 0.949-1.896 1.21s-1.473 0.363-2.229 0.299l0.022 0.022c-0.904-0.084-1.812 0.113-2.6 0.563s-1.418 1.134-1.804 1.956c-0.386 0.822-0.509 1.743-0.352 2.637s0.586 1.719 1.228 2.36 1.467 1.070 2.361 1.226c0.895 0.156 1.815 0.032 2.637-0.354s1.504-1.017 1.954-1.806c0.45-0.789 0.646-1.697 0.561-2.601l0.023 0.022c-0.064-0.756 0.038-1.516 0.299-2.229s0.673-1.359 1.21-1.896c0.536-0.536 1.183-0.949 1.896-1.21s1.473-0.363 2.229-0.299l-0.023-0.022c0.738 0.066 1.482-0.055 2.161-0.352s1.272-0.761 1.725-1.349c0.452-0.588 0.749-1.28 0.862-2.013s0.040-1.482-0.213-2.179c-0.253-0.697-0.679-1.318-1.236-1.807s-1.23-0.829-1.954-0.989c-0.724-0.16-1.477-0.134-2.188 0.074s-1.359 0.593-1.882 1.119h-0.004z"></path>
<path fill="#fff" style="fill: var(--color1, #fff)" d="M15.566 20.362l-0.023-0.022c0.642 0.065 1.291-0.014 1.899-0.231s1.161-0.566 1.617-1.022c0.457-0.456 0.806-1.009 1.023-1.617s0.297-1.257 0.232-1.899l0.023 0.022c-0.064-0.756 0.038-1.516 0.299-2.229s0.673-1.359 1.21-1.896c0.536-0.536 1.183-0.949 1.896-1.21s1.473-0.363 2.229-0.299l-0.023-0.022c0.904 0.085 1.812-0.111 2.601-0.562s1.419-1.133 1.806-1.955c0.386-0.822 0.51-1.743 0.354-2.637s-0.585-1.719-1.227-2.361c-0.642-0.642-1.467-1.071-2.361-1.227s-1.816-0.033-2.637 0.354c-0.822 0.386-1.504 1.017-1.955 1.806s-0.646 1.697-0.561 2.601l-0.022-0.023c0.064 0.756-0.038 1.517-0.298 2.229s-0.673 1.36-1.21 1.896c-0.536 0.536-1.183 0.949-1.896 1.21s-1.473 0.362-2.229 0.298l0.022 0.023c-0.642-0.065-1.291 0.014-1.899 0.231s-1.161 0.566-1.617 1.022c-0.457 0.456-0.806 1.009-1.023 1.617s-0.296 1.257-0.232 1.899l-0.022-0.022c0.064 0.756-0.039 1.516-0.299 2.229s-0.673 1.359-1.21 1.895c-0.536 0.536-1.183 0.949-1.895 1.21s-1.473 0.363-2.229 0.299l0.022 0.022c-0.904-0.085-1.813 0.111-2.601 0.561s-1.419 1.133-1.806 1.955-0.51 1.743-0.354 2.637c0.156 0.895 0.585 1.719 1.227 2.361s1.467 1.071 2.361 1.227c0.895 0.156 1.816 0.033 2.638-0.354s1.504-1.017 1.955-1.805c0.45-0.789 0.646-1.697 0.562-2.601l0.023 0.022c-0.064-0.756 0.038-1.516 0.299-2.229s0.673-1.359 1.21-1.896c0.536-0.536 1.183-0.949 1.896-1.21s1.473-0.363 2.229-0.299z"></path>
<path fill="#fff" style="fill: var(--color1, #fff)" d="M7.524 17.954c0.455-0.457 0.803-1.010 1.020-1.617s0.297-1.256 0.234-1.898l0.023 0.022c-0.064-0.756 0.038-1.517 0.299-2.229s0.674-1.36 1.21-1.896c0.537-0.536 1.184-0.949 1.896-1.21s1.474-0.362 2.23-0.298l-0.023-0.022c0.904 0.085 1.812-0.112 2.6-0.562s1.418-1.133 1.805-1.954c0.386-0.822 0.509-1.742 0.353-2.637s-0.585-1.719-1.227-2.361c-0.642-0.642-1.466-1.070-2.361-1.226s-1.815-0.033-2.637 0.353c-0.822 0.386-1.504 1.016-1.954 1.805s-0.647 1.696-0.562 2.6l-0.022-0.022c0.064 0.756-0.038 1.516-0.299 2.229s-0.673 1.359-1.21 1.896c-0.536 0.536-1.183 0.949-1.896 1.21s-1.473 0.363-2.229 0.299l0.022 0.022c-0.739-0.066-1.482 0.055-2.161 0.353s-1.272 0.762-1.724 1.349c-0.452 0.588-0.748 1.28-0.862 2.013s-0.040 1.482 0.214 2.179c0.254 0.697 0.679 1.318 1.237 1.807s1.23 0.829 1.954 0.989c0.724 0.16 1.477 0.134 2.188-0.074s1.359-0.593 1.882-1.119h-0.002z"></path>
</symbol>
<symbol id="icon-medium" viewBox="0 0 31 32">
<path fill="#fff" style="fill: var(--primary-color, #fff)" d="M16.585 16c0 4.573-3.501 8.293-7.805 8.293s-7.805-3.72-7.805-8.293c0-4.573 3.501-8.293 7.805-8.293s7.805 3.72 7.805 8.293zM22.439 8.195c-0.693 0-2 0.337-2.966 2.592-0.604 1.408-0.936 3.26-0.936 5.213s0.332 3.805 0.936 5.213c0.966 2.255 2.273 2.592 2.966 2.592s2-0.337 2.966-2.592c0.604-1.408 0.936-3.26 0.936-5.213s-0.332-3.805-0.936-5.213c-0.966-2.255-2.273-2.592-2.966-2.592zM29.268 8.195c-0.259 0-0.507 0.103-0.69 0.286s-0.286 0.431-0.286 0.69v13.659c0 0.259 0.103 0.507 0.286 0.69s0.431 0.286 0.69 0.286c0.259 0 0.507-0.103 0.69-0.286s0.286-0.431 0.286-0.69v-13.659c0-0.259-0.103-0.507-0.286-0.69s-0.431-0.286-0.69-0.286z"></path>
</symbol>
<symbol id="icon-shield" viewBox="0 0 27 32">
<path fill="#fff" style="fill: var(--color1, #fff)" d="M26.611 3.949c-7.898 0-13.048-3.949-13.048-3.949s-5.151 3.949-12.979 3.949c0 0-0.893 12.528 0 16.885 0.824 4.085 12.979 11.166 12.979 11.166s12.155-7.081 13.048-11.166c0.824-4.289 0-16.885 0-16.885z"></path>
</symbol>
<symbol id="icon-sun" viewBox="0 0 32 32">
<path fill="#fff194" style="fill: var(--color5, #fff194)" d="M16 25.334c5.155 0 9.333-4.179 9.333-9.333s-4.179-9.333-9.333-9.333c-5.155 0-9.333 4.179-9.333 9.333s4.179 9.333 9.333 9.333z"></path>
<path fill="#fff194" style="fill: var(--color5, #fff194)" d="M16 30.613c-0.733 0-1.333-0.547-1.333-1.28v-0.107c0-0.733 0.6-1.333 1.333-1.333s1.333 0.6 1.333 1.333c0 0.733-0.6 1.387-1.333 1.387zM25.52 26.853c-0.347 0-0.68-0.133-0.947-0.387l-0.173-0.173c-0.52-0.52-0.52-1.36 0-1.88s1.36-0.52 1.88 0l0.173 0.173c0.52 0.52 0.52 1.36 0 1.88-0.253 0.253-0.587 0.387-0.933 0.387zM6.48 26.853c-0.347 0-0.68-0.133-0.947-0.387-0.52-0.52-0.52-1.36 0-1.88l0.173-0.173c0.52-0.52 1.36-0.52 1.88 0s0.52 1.36 0 1.88l-0.173 0.173c-0.253 0.253-0.6 0.387-0.933 0.387zM29.333 17.333h-0.107c-0.733 0-1.333-0.6-1.333-1.333s0.6-1.333 1.333-1.333c0.733 0 1.387 0.6 1.387 1.333s-0.547 1.333-1.28 1.333zM2.773 17.333h-0.107c-0.733 0-1.333-0.6-1.333-1.333s0.6-1.333 1.333-1.333c0.733 0 1.387 0.6 1.387 1.333s-0.547 1.333-1.28 1.333zM25.347 7.986c-0.347 0-0.68-0.133-0.947-0.387-0.52-0.52-0.52-1.36 0-1.88l0.173-0.173c0.52-0.52 1.36-0.52 1.88 0s0.52 1.36 0 1.88l-0.173 0.173c-0.253 0.253-0.587 0.387-0.933 0.387zM6.653 7.986c-0.347 0-0.68-0.133-0.947-0.387l-0.173-0.187c-0.52-0.52-0.52-1.36 0-1.88s1.36-0.52 1.88 0l0.173 0.173c0.52 0.52 0.52 1.36 0 1.88-0.253 0.267-0.6 0.4-0.933 0.4zM16 4.053c-0.733 0-1.333-0.547-1.333-1.28v-0.107c0-0.733 0.6-1.333 1.333-1.333s1.333 0.6 1.333 1.333-0.6 1.387-1.333 1.387z"></path>
</symbol>
<symbol id="icon-telegram" viewBox="0 0 32 32">
<path fill="#fff" style="fill: var(--primary-color, #fff)" d="M15.915 2.992c-2.573 0-5.088 0.763-7.227 2.192s-3.806 3.461-4.791 5.838c-0.985 2.377-1.242 4.992-0.74 7.516s1.741 4.841 3.56 6.66c1.819 1.819 4.137 3.058 6.66 3.56s5.139 0.244 7.516-0.74c2.377-0.985 4.409-2.652 5.838-4.791s2.192-4.654 2.192-7.227c0-1.708-0.336-3.4-0.99-4.978s-1.612-3.012-2.82-4.22c-1.208-1.208-2.642-2.166-4.22-2.82s-3.27-0.99-4.978-0.99zM20.050 22.702c-0.049 0.121-0.123 0.231-0.217 0.321s-0.207 0.16-0.331 0.203c-0.123 0.043-0.255 0.060-0.385 0.048s-0.257-0.051-0.37-0.115l-3.531-2.744-2.266 2.091c-0.053 0.039-0.114 0.064-0.179 0.073s-0.131 0.001-0.192-0.022l0.434-3.887 0.014 0.011 0.009-0.077c0 0 6.354-5.785 6.613-6.032 0.262-0.246 0.176-0.299 0.176-0.299 0.015-0.3-0.47 0-0.47 0l-8.419 5.417-3.506-1.194c0 0-0.539-0.193-0.589-0.618-0.053-0.421 0.607-0.65 0.607-0.65l13.941-5.538c0 0 1.146-0.511 1.146 0.335l-2.483 12.678z"></path>
</symbol>
<symbol id="icon-twitter" viewBox="0 0 32 32">
<path fill="#fff" style="fill: var(--primary-color, #fff)" d="M30.727 6.984c-1.067 0.474-2.213 0.793-3.416 0.937 1.229-0.736 2.17-1.901 2.614-3.29-1.148 0.681-2.421 1.176-3.777 1.444-1.085-1.156-2.63-1.878-4.34-1.878-3.78-0.051-6.686 3.642-5.792 7.301-4.942-0.248-9.323-2.615-12.257-6.214-1.601 2.611-0.692 6.345 1.841 7.939-0.974-0.031-1.892-0.299-2.693-0.744-0.037 2.905 2.024 5.358 4.77 5.905-0.844 0.235-1.816 0.272-2.686 0.102 0.757 2.362 2.953 4.082 5.555 4.13-2.352 1.88-5.646 2.86-8.804 2.463 12.701 7.816 26.741-2.424 26.016-15.017 1.162-0.839 2.171-1.886 2.968-3.078z"></path>
</symbol>
</defs>
</svg>
